<?xml version="1.0" encoding="UTF-8"?>
<svg width="400px" height="96px" viewBox="0 0 400 96" version="1.1" xmlns="http://www.w3.org/2000/svg" xmlns:xlink="http://www.w3.org/1999/xlink">
    <title>Dyflexis</title>
    <defs>
        <polygon id="path-1" points="0 96 400 96 400 0.954 0 0.954"></polygon>
        <path d="M33.372,1.45 L33.372,7.537 C33.372,8.305 32.851,8.963 32.101,9.133 L32.101,9.133 C28.673,9.925 25.412,11.285 22.405,13.17 L22.405,13.17 C21.765,13.564 20.897,13.465 20.377,12.938 L20.377,12.938 L16.057,8.618 C12.85,10.979 10.027,13.803 7.658,17.02 L7.658,17.02 L11.98,21.339 C12.524,21.884 12.616,22.717 12.21,23.367 L12.21,23.367 C10.333,26.362 8.973,29.623 8.175,33.065 L8.175,33.065 C8.003,33.811 7.347,34.336 6.579,34.336 L6.579,34.336 L0.494,34.336 C0.162,36.47 -1.13686838e-13,38.415 -1.13686838e-13,40.272 L-1.13686838e-13,40.272 C-1.13686838e-13,42.118 0.16,44.064 0.493,46.208 L0.493,46.208 L6.579,46.208 C7.347,46.208 8.003,46.73 8.175,47.479 L8.175,47.479 C8.967,50.902 10.325,54.164 12.211,57.176 L12.211,57.176 C12.618,57.824 12.524,58.657 11.982,59.203 L11.982,59.203 L7.663,63.528 C10.027,66.745 12.85,69.564 16.057,71.927 L16.057,71.927 L20.377,67.606 C20.9,67.08 21.771,66.98 22.403,67.374 L22.403,67.374 C25.41,69.258 28.671,70.617 32.102,71.41 L32.102,71.41 C32.851,71.58 33.372,72.239 33.372,73.008 L33.372,73.008 L33.372,79.094 C37.683,79.756 40.957,79.756 45.251,79.094 L45.251,79.094 L45.251,73.01 C45.251,72.239 45.774,71.58 46.523,71.412 L46.523,71.412 C49.948,70.618 53.212,69.261 56.219,67.376 L56.219,67.376 C56.848,66.982 57.724,67.079 58.249,67.606 L58.249,67.606 L62.564,71.927 C65.776,69.564 68.598,66.74 70.964,63.528 L70.964,63.528 L66.645,59.209 C66.1,58.665 66.008,57.83 66.414,57.179 L66.414,57.179 C68.301,54.167 69.658,50.902 70.45,47.477 L70.45,47.477 C70.622,46.73 71.281,46.208 72.046,46.208 L72.046,46.208 L78.136,46.208 C78.468,44.064 78.628,42.118 78.628,40.272 L78.628,40.272 C78.628,38.424 78.468,36.48 78.136,34.336 L78.136,34.336 L72.046,34.336 C71.281,34.336 70.622,33.811 70.45,33.065 L70.45,33.065 C69.658,29.64 68.299,26.376 66.414,23.363 L66.414,23.363 C66.008,22.713 66.1,21.881 66.645,21.334 L66.645,21.334 L70.964,17.017 C68.596,13.799 65.774,10.977 62.564,8.618 L62.564,8.618 L58.251,12.936 C57.728,13.463 56.856,13.564 56.224,13.17 L56.224,13.17 C53.214,11.283 49.948,9.925 46.519,9.131 L46.519,9.131 C45.774,8.957 45.251,8.299 45.251,7.534 L45.251,7.534 L45.251,1.45 C43.098,1.119 41.205,0.954 39.311,0.954 L39.311,0.954 C37.417,0.954 35.523,1.119 33.372,1.45 M31.156,62.04 C30.659,61.855 30.168,61.645 29.689,61.428 L29.689,61.428 C24.579,59.1 20.483,55.006 18.155,49.901 L18.155,49.901 C17.936,49.409 17.731,48.925 17.542,48.421 L17.542,48.421 C16.566,45.826 16.072,43.084 16.072,40.272 L16.072,40.272 C16.072,37.47 16.566,34.725 17.542,32.119 L17.542,32.119 C17.733,31.619 17.938,31.133 18.151,30.653 L18.151,30.653 C20.48,25.545 24.575,21.45 29.689,19.119 L29.689,19.119 C30.168,18.898 30.661,18.691 31.174,18.505 L31.174,18.505 C36.362,16.552 42.262,16.553 47.461,18.507 L47.461,18.507 C47.961,18.691 48.462,18.898 48.946,19.126 L48.946,19.126 C54.046,21.445 58.138,25.539 60.468,30.644 L60.468,30.644 C60.689,31.131 60.889,31.617 61.08,32.115 L61.08,32.115 C62.06,34.728 62.556,37.47 62.556,40.272 L62.556,40.272 C62.556,43.077 62.06,45.822 61.08,48.424 L61.08,48.424 C60.891,48.925 60.689,49.413 60.468,49.899 L60.468,49.899 C58.14,55.009 54.046,59.102 48.935,61.428 L48.935,61.428 C48.457,61.645 47.961,61.859 47.455,62.043 L47.455,62.043 C44.86,63.02 42.124,63.512 39.314,63.512 L39.314,63.512 C36.506,63.512 33.762,63.018 31.156,62.04" id="path-3"></path>
        <linearGradient x1="14.6857681%" y1="85.3187911%" x2="85.3119232%" y2="14.6850011%" id="linearGradient-5">
            <stop stop-color="#4BA11C" offset="0%"></stop>
            <stop stop-color="#1C5DAC" offset="100%"></stop>
        </linearGradient>
        <path d="M0.247,0.623 L0.247,31.923 L11.704,31.923 C15.385,31.923 18.465,30.723 20.949,28.332 L20.949,28.332 C23.425,25.938 24.664,22.857 24.664,19.088 L24.664,19.088 L24.664,13.458 C24.664,9.702 23.425,6.624 20.949,4.224 L20.949,4.224 C18.465,1.824 15.385,0.623 11.704,0.623 L11.704,0.623 L0.247,0.623 Z M7.513,6.214 L11.704,6.214 C13.351,6.214 14.711,6.886 15.777,8.234 L15.777,8.234 C16.845,9.581 17.378,11.306 17.378,13.413 L17.378,13.413 L17.378,19.088 C17.378,21.221 16.845,22.965 15.777,24.312 L15.777,24.312 C14.711,25.657 13.351,26.33 11.704,26.33 L11.704,26.33 L7.513,26.33 L7.513,6.214 Z" id="path-6"></path>
        <linearGradient x1="10.7359893%" y1="88.6634013%" x2="71.0503566%" y2="11.3467901%" id="linearGradient-8">
            <stop stop-color="#4BA11C" offset="0%"></stop>
            <stop stop-color="#1C5DAC" offset="100%"></stop>
        </linearGradient>
    </defs>
    <g id="Page-1" stroke="none" stroke-width="1" fill="none" fill-rule="evenodd">
        <g id="Group">
            <polygon id="Fill-10" fill="#172947" points="231.3425 17.0427 221.7785 17.0427 221.7785 63.5007 247.0265 63.5007 251.2045 56.5517 231.3425 56.5517"></polygon>
            <g id="Group-36">
                <path d="M120.9061,44.5992 C120.9061,48.1212 119.9991,51.0132 118.2111,53.1932 C116.3771,55.4182 113.8201,56.5502 110.6081,56.5502 L104.3731,56.5502 L104.3731,23.9952 L110.6081,23.9952 C113.8201,23.9952 116.3751,25.1182 118.2091,27.3292 C119.9991,29.4992 120.9061,32.3772 120.9061,35.8802 L120.9061,44.5992 Z M111.3671,17.0422 L94.8091,17.0422 L94.8091,63.5012 L111.3671,63.5012 C116.7791,63.5012 121.3711,61.7232 125.0061,58.2162 C128.6301,54.7172 130.4681,50.1332 130.4681,44.5992 L130.4681,35.9462 C130.4681,30.4352 128.6301,25.8592 125.0041,22.3432 C121.3711,18.8282 116.7811,17.0422 111.3671,17.0422 L111.3671,17.0422 Z" id="Fill-11" fill="#172947"></path>
                <polygon id="Fill-13" fill="#172947" points="153.7625 37.5707 144.4345 17.0417 134.2515 17.0417 149.7405 46.8457 149.7405 63.5017 159.2405 63.5017 159.3325 47.0277 175.0585 17.0417 164.8115 17.0417 155.2325 38.0467 154.1785 38.0467"></polygon>
                <polygon id="Fill-15" fill="#172947" points="268.5916 42.9237 287.4506 42.9237 287.4506 35.9687 268.5916 35.9687 268.5916 23.9947 290.8836 23.9947 290.8836 17.0417 259.0256 17.0417 259.0256 63.5017 290.8206 63.5017 290.8206 56.5507 268.5916 56.5507"></polygon>
                <mask id="mask-2" fill="white">
                    <use xlink:href="#path-1"></use>
                </mask>
                <g id="Clip-18"></g>
                <polygon id="Fill-17" fill="#172947" mask="url(#mask-2)" points="346.354 63.502 355.852 63.502 355.852 17.044 346.354 17.044"></polygon>
                <path d="M396.1394,42.3098 C393.4774,40.0188 389.4284,38.0518 384.1024,36.4648 C380.4084,35.1308 377.9794,34.0608 376.6344,33.1708 C375.1104,32.1718 374.3354,30.8038 374.3354,29.1078 C374.3354,27.3948 375.0854,25.9428 376.5664,24.7938 C377.9854,23.6928 379.9324,23.1348 382.3504,23.1348 C384.8404,23.1348 386.8374,23.8138 388.2924,25.1548 C389.5704,26.3368 390.2984,27.8318 390.4664,29.6098 L399.7714,29.6098 C399.7204,25.8028 398.1984,22.7448 395.1364,20.2798 C391.9014,17.6708 387.6664,16.3478 382.5514,16.3478 C377.3784,16.3478 373.0614,17.5518 369.7284,19.9268 C366.4384,22.2778 364.8364,25.2578 364.8364,29.0418 C364.8364,32.9468 366.1694,35.8388 368.9034,37.8818 C371.7404,40.0048 376.2014,42.0368 382.1694,43.9198 C385.2154,45.0028 387.2744,46.0118 388.4894,47.0068 C389.8034,48.0898 390.4704,49.6258 390.4704,51.5718 C390.4704,53.3178 389.7954,54.7538 388.4684,55.8358 C387.1924,56.8758 385.2794,57.4038 382.7834,57.4038 C379.5634,57.4038 377.1034,56.7428 375.4694,55.4468 C373.9314,54.2288 373.0814,52.2858 372.9364,49.6768 L363.6124,49.6768 C363.6594,54.2798 365.4504,57.7358 369.0764,60.2278 C372.8994,62.8608 377.5124,64.1958 382.7834,64.1958 C388.0234,64.1958 392.2674,63.0438 395.4034,60.7668 C398.4934,58.5208 400.0014,55.4898 400.0014,51.5028 C400.0014,47.5518 398.7384,44.5458 396.1394,42.3098" id="Fill-19" fill="#172947" mask="url(#mask-2)"></path>
                <polygon id="Fill-20" fill="#172947" mask="url(#mask-2)" points="202.1416 37.1882 192.2436 37.1882 192.2436 23.9942 210.0606 23.9942 214.2366 17.0432 182.6776 17.0432 182.6776 63.5012 192.2436 63.5012 192.2436 44.1472 197.9676 44.1472"></polygon>
                <polygon id="Fill-21" fill="#172947" mask="url(#mask-2)" points="337.7893 17.0427 323.8443 40.2727 337.7893 63.5007 326.8163 63.5007 318.3583 49.4157 309.9013 63.5007 298.9203 63.5007 326.8163 17.0427"></polygon>
                <polygon id="Fill-22" fill="#172947" mask="url(#mask-2)" points="309.9023 17.0427 316.9163 28.7257 305.9373 28.7257 298.9213 17.0427"></polygon>
                <path d="M97.5098,87.4704 L101.1318,87.4704 C102.1328,87.4704 102.8838,87.2034 103.3878,86.6704 C103.8908,86.1394 104.1408,85.4624 104.1408,84.6364 C104.1408,83.8154 103.8908,83.1304 103.3878,82.5804 C102.8838,82.0334 102.1328,81.7564 101.1318,81.7564 L97.5098,81.7564 L97.5098,87.4704 Z M97.5098,89.6404 L97.5098,95.7734 L94.8108,95.7734 L94.8108,79.5904 L101.1318,79.5904 C102.9198,79.5904 104.3148,80.0544 105.3278,80.9744 C106.3378,81.8974 106.8458,83.1104 106.8458,84.6134 C106.8458,86.1354 106.3378,87.3474 105.3278,88.2624 C104.3148,89.1834 102.9198,89.6404 101.1318,89.6404 L97.5098,89.6404 Z" id="Fill-23" fill="#172947" mask="url(#mask-2)"></path>
                <polygon id="Fill-24" fill="#172947" mask="url(#mask-2)" points="120.3572 93.6034 127.7922 93.6034 127.7922 95.7734 117.6562 95.7734 117.6562 79.5904 120.3572 79.5904"></polygon>
                <path d="M141.5486,89.7356 L146.3376,89.7356 L143.9916,82.8256 L143.9276,82.8256 L141.5486,89.7356 Z M147.1046,91.9916 L140.7716,91.9916 L139.4806,95.7716 L136.7466,95.7716 L142.6946,79.5916 L145.2506,79.5916 L151.1266,95.7716 L148.3826,95.7716 L147.1046,91.9916 Z" id="Fill-25" fill="#172947" mask="url(#mask-2)"></path>
                <polygon id="Fill-26" fill="#172947" mask="url(#mask-2)" points="173.7839 95.7725 171.0949 95.7725 163.9169 83.9605 163.8489 83.9815 163.8489 95.7725 161.1519 95.7725 161.1519 79.5905 163.8489 79.5905 171.0269 91.3935 171.0949 91.3715 171.0949 79.5905 173.7839 79.5905"></polygon>
                <polygon id="Fill-27" fill="#172947" mask="url(#mask-2)" points="209.26 81.7559 204.375 81.7559 204.375 95.7729 201.673 95.7729 201.673 81.7559 196.786 81.7559 196.786 79.5899 209.26 79.5899"></polygon>
                <path d="M229.1053,86.2025 C229.1053,84.8555 228.7443,83.7515 228.0243,82.8815 C227.3003,82.0145 226.3263,81.5815 225.0953,81.5815 C223.9103,81.5815 222.9753,82.0145 222.2833,82.8815 C221.5963,83.7515 221.2503,84.8555 221.2503,86.2025 L221.2503,89.1355 C221.2503,90.4975 221.5963,91.6155 222.2833,92.4845 C222.9753,93.3565 223.9143,93.7915 225.1083,93.7915 C226.3443,93.7915 227.3213,93.3605 228.0363,92.4905 C228.7483,91.6255 229.1053,90.5075 229.1053,89.1355 L229.1053,86.2025 Z M231.7963,89.1355 C231.7963,91.1145 231.1763,92.7515 229.9343,94.0535 C228.6933,95.3545 227.0853,96.0005 225.1083,96.0005 C223.1653,96.0005 221.5923,95.3545 220.3783,94.0535 C219.1683,92.7515 218.5613,91.1145 218.5613,89.1355 L218.5613,86.2275 C218.5613,84.2565 219.1683,82.6195 220.3783,81.3145 C221.5923,80.0085 223.1633,79.3585 225.0953,79.3585 C227.0743,79.3585 228.6833,80.0085 229.9293,81.3145 C231.1743,82.6195 231.7963,84.2565 231.7963,86.2275 L231.7963,89.1355 Z" id="Fill-28" fill="#172947" mask="url(#mask-2)"></path>
                <path d="M258.158,89.7356 L262.947,89.7356 L260.601,82.8256 L260.535,82.8256 L258.158,89.7356 Z M263.712,91.9916 L257.379,91.9916 L256.093,95.7716 L253.357,95.7716 L259.303,79.5916 L261.858,79.5916 L267.734,95.7716 L264.99,95.7716 L263.712,91.9916 Z" id="Fill-29" fill="#172947" mask="url(#mask-2)"></path>
                <path d="M289.5603,90.4046 L289.5833,90.4706 C289.6113,92.1066 289.0803,93.4386 287.9853,94.4636 C286.8943,95.4896 285.4133,96.0016 283.5493,96.0016 C281.6573,96.0016 280.1233,95.3706 278.9423,94.0986 C277.7603,92.8286 277.1703,91.2066 277.1703,89.2276 L277.1703,86.1486 C277.1703,84.1796 277.7523,82.5536 278.9193,81.2756 C280.0883,79.9996 281.6023,79.3576 283.4683,79.3576 C285.3823,79.3576 286.8853,79.8606 287.9853,80.8676 C289.0863,81.8686 289.6223,83.2176 289.5913,84.9146 L289.5703,84.9796 L286.9573,84.9796 C286.9573,83.8906 286.6643,83.0456 286.0773,82.4346 C285.4893,81.8316 284.6193,81.5256 283.4683,81.5256 C282.3673,81.5256 281.4893,81.9646 280.8413,82.8386 C280.1973,83.7106 279.8713,84.8056 279.8713,86.1226 L279.8713,89.2196 C279.8713,90.5506 280.2013,91.6536 280.8663,92.5276 C281.5303,93.4016 282.4203,93.8356 283.5493,93.8356 C284.6663,93.8356 285.5113,93.5366 286.0943,92.9396 C286.6703,92.3386 286.9573,91.4976 286.9573,90.4046 L289.5603,90.4046 Z" id="Fill-30" fill="#172947" mask="url(#mask-2)"></path>
                <polygon id="Fill-31" fill="#172947" mask="url(#mask-2)" points="313.0068 95.7725 310.3178 95.7725 310.3178 88.8705 303.0718 88.8705 303.0718 95.7725 300.3708 95.7725 300.3708 79.5905 303.0718 79.5905 303.0718 86.7075 310.3178 86.7075 310.3178 79.5905 313.0068 79.5905"></polygon>
                <polygon id="Fill-32" fill="#172947" mask="url(#mask-2)" points="324.855 95.772 327.55 95.772 327.55 79.589 324.855 79.589"></polygon>
                <polygon id="Fill-33" fill="#172947" mask="url(#mask-2)" points="349.1641 88.4918 342.0881 88.4918 342.0881 93.6028 350.3001 93.6028 350.3001 95.7728 339.3871 95.7728 339.3871 79.5908 350.2241 79.5908 350.2241 81.7558 342.0881 81.7558 342.0881 86.3258 349.1641 86.3258"></polygon>
                <polygon id="Fill-34" fill="#172947" mask="url(#mask-2)" points="365.8586 91.5364 366.1476 92.6564 366.2116 92.6564 366.4886 91.5594 370.3566 79.5914 373.2356 79.5914 367.4566 95.7714 364.8886 95.7714 359.1246 79.5914 362.0006 79.5914"></polygon>
                <polygon id="Fill-35" fill="#172947" mask="url(#mask-2)" points="393.0947 88.4918 386.0147 88.4918 386.0147 93.6028 394.2267 93.6028 394.2267 95.7728 383.3137 95.7728 383.3137 79.5908 394.1487 79.5908 394.1487 81.7558 386.0147 81.7558 386.0147 86.3258 393.0947 86.3258"></polygon>
            </g>
            <g id="Group-39">
                <mask id="mask-4" fill="white">
                    <use xlink:href="#path-3"></use>
                </mask>
                <g id="Clip-38"></g>
                <path d="M33.372,1.45 L33.372,7.537 C33.372,8.305 32.851,8.963 32.101,9.133 L32.101,9.133 C28.673,9.925 25.412,11.285 22.405,13.17 L22.405,13.17 C21.765,13.564 20.897,13.465 20.377,12.938 L20.377,12.938 L16.057,8.618 C12.85,10.979 10.027,13.803 7.658,17.02 L7.658,17.02 L11.98,21.339 C12.524,21.884 12.616,22.717 12.21,23.367 L12.21,23.367 C10.333,26.362 8.973,29.623 8.175,33.065 L8.175,33.065 C8.003,33.811 7.347,34.336 6.579,34.336 L6.579,34.336 L0.494,34.336 C0.162,36.47 -1.13686838e-13,38.415 -1.13686838e-13,40.272 L-1.13686838e-13,40.272 C-1.13686838e-13,42.118 0.16,44.064 0.493,46.208 L0.493,46.208 L6.579,46.208 C7.347,46.208 8.003,46.73 8.175,47.479 L8.175,47.479 C8.967,50.902 10.325,54.164 12.211,57.176 L12.211,57.176 C12.618,57.824 12.524,58.657 11.982,59.203 L11.982,59.203 L7.663,63.528 C10.027,66.745 12.85,69.564 16.057,71.927 L16.057,71.927 L20.377,67.606 C20.9,67.08 21.771,66.98 22.403,67.374 L22.403,67.374 C25.41,69.258 28.671,70.617 32.102,71.41 L32.102,71.41 C32.851,71.58 33.372,72.239 33.372,73.008 L33.372,73.008 L33.372,79.094 C37.683,79.756 40.957,79.756 45.251,79.094 L45.251,79.094 L45.251,73.01 C45.251,72.239 45.774,71.58 46.523,71.412 L46.523,71.412 C49.948,70.618 53.212,69.261 56.219,67.376 L56.219,67.376 C56.848,66.982 57.724,67.079 58.249,67.606 L58.249,67.606 L62.564,71.927 C65.776,69.564 68.598,66.74 70.964,63.528 L70.964,63.528 L66.645,59.209 C66.1,58.665 66.008,57.83 66.414,57.179 L66.414,57.179 C68.301,54.167 69.658,50.902 70.45,47.477 L70.45,47.477 C70.622,46.73 71.281,46.208 72.046,46.208 L72.046,46.208 L78.136,46.208 C78.468,44.064 78.628,42.118 78.628,40.272 L78.628,40.272 C78.628,38.424 78.468,36.48 78.136,34.336 L78.136,34.336 L72.046,34.336 C71.281,34.336 70.622,33.811 70.45,33.065 L70.45,33.065 C69.658,29.64 68.299,26.376 66.414,23.363 L66.414,23.363 C66.008,22.713 66.1,21.881 66.645,21.334 L66.645,21.334 L70.964,17.017 C68.596,13.799 65.774,10.977 62.564,8.618 L62.564,8.618 L58.251,12.936 C57.728,13.463 56.856,13.564 56.224,13.17 L56.224,13.17 C53.214,11.283 49.948,9.925 46.519,9.131 L46.519,9.131 C45.774,8.957 45.251,8.299 45.251,7.534 L45.251,7.534 L45.251,1.45 C43.098,1.119 41.205,0.954 39.311,0.954 L39.311,0.954 C37.417,0.954 35.523,1.119 33.372,1.45 M31.156,62.04 C30.659,61.855 30.168,61.645 29.689,61.428 L29.689,61.428 C24.579,59.1 20.483,55.006 18.155,49.901 L18.155,49.901 C17.936,49.409 17.731,48.925 17.542,48.421 L17.542,48.421 C16.566,45.826 16.072,43.084 16.072,40.272 L16.072,40.272 C16.072,37.47 16.566,34.725 17.542,32.119 L17.542,32.119 C17.733,31.619 17.938,31.133 18.151,30.653 L18.151,30.653 C20.48,25.545 24.575,21.45 29.689,19.119 L29.689,19.119 C30.168,18.898 30.661,18.691 31.174,18.505 L31.174,18.505 C36.362,16.552 42.262,16.553 47.461,18.507 L47.461,18.507 C47.961,18.691 48.462,18.898 48.946,19.126 L48.946,19.126 C54.046,21.445 58.138,25.539 60.468,30.644 L60.468,30.644 C60.689,31.131 60.889,31.617 61.08,32.115 L61.08,32.115 C62.06,34.728 62.556,37.47 62.556,40.272 L62.556,40.272 C62.556,43.077 62.06,45.822 61.08,48.424 L61.08,48.424 C60.891,48.925 60.689,49.413 60.468,49.899 L60.468,49.899 C58.14,55.009 54.046,59.102 48.935,61.428 L48.935,61.428 C48.457,61.645 47.961,61.859 47.455,62.043 L47.455,62.043 C44.86,63.02 42.124,63.512 39.314,63.512 L39.314,63.512 C36.506,63.512 33.762,63.018 31.156,62.04" id="Fill-37" fill="url(#linearGradient-5)" mask="url(#mask-4)"></path>
            </g>
            <g id="Group-42" transform="translate(28.000000, 24.000000)">
                <mask id="mask-7" fill="white">
                    <use xlink:href="#path-6"></use>
                </mask>
                <g id="Clip-41"></g>
                <path d="M0.247,0.623 L0.247,31.923 L11.704,31.923 C15.385,31.923 18.465,30.723 20.949,28.332 L20.949,28.332 C23.425,25.938 24.664,22.857 24.664,19.088 L24.664,19.088 L24.664,13.458 C24.664,9.702 23.425,6.624 20.949,4.224 L20.949,4.224 C18.465,1.824 15.385,0.623 11.704,0.623 L11.704,0.623 L0.247,0.623 Z M7.513,6.214 L11.704,6.214 C13.351,6.214 14.711,6.886 15.777,8.234 L15.777,8.234 C16.845,9.581 17.378,11.306 17.378,13.413 L17.378,13.413 L17.378,19.088 C17.378,21.221 16.845,22.965 15.777,24.312 L15.777,24.312 C14.711,25.657 13.351,26.33 11.704,26.33 L11.704,26.33 L7.513,26.33 L7.513,6.214 Z" id="Fill-40" fill="url(#linearGradient-8)" mask="url(#mask-7)"></path>
            </g>
        </g>
    </g>
</svg>